<?xml version="1.0" encoding="UTF-8" standalone="no"?>
<!-- Created with Inkscape (http://www.inkscape.org/) -->

<svg
   width="71.539421mm"
   height="18.990288mm"
   viewBox="0 0 71.539421 18.990288"
   version="1.1"
   id="svg8"
   inkscape:version="1.2.2 (732a01da63, 2022-12-09)"
   sodipodi:docname="nova logo.svg"
   inkscape:export-filename="C:\Users\marlo\Google Drive\Cristal Diversidades\marketing\nova logo.png"
   inkscape:export-xdpi="200"
   inkscape:export-ydpi="200"
   xml:space="preserve"
   xmlns:inkscape="http://www.inkscape.org/namespaces/inkscape"
   xmlns:sodipodi="http://sodipodi.sourceforge.net/DTD/sodipodi-0.dtd"
   xmlns="http://www.w3.org/2000/svg"
   xmlns:svg="http://www.w3.org/2000/svg"
   xmlns:rdf="http://www.w3.org/1999/02/22-rdf-syntax-ns#"
   xmlns:cc="http://creativecommons.org/ns#"
   xmlns:dc="http://purl.org/dc/elements/1.1/"><defs
     id="defs2" /><sodipodi:namedview
     id="base"
     pagecolor="#ffffff"
     bordercolor="#666666"
     borderopacity="1.0"
     inkscape:pageopacity="0.0"
     inkscape:pageshadow="2"
     inkscape:zoom="1.5219183"
     inkscape:cx="463.23117"
     inkscape:cy="246.72809"
     inkscape:document-units="mm"
     inkscape:current-layer="layer1"
     showgrid="false"
     showguides="true"
     inkscape:window-width="1920"
     inkscape:window-height="1001"
     inkscape:window-x="-9"
     inkscape:window-y="-9"
     inkscape:window-maximized="1"
     inkscape:showpageshadow="2"
     inkscape:pagecheckerboard="0"
     inkscape:deskcolor="#d1d1d1" /><metadata
     id="metadata5"><rdf:RDF><cc:Work
         rdf:about=""><dc:format>image/svg+xml</dc:format><dc:type
           rdf:resource="http://purl.org/dc/dcmitype/StillImage" /><dc:title /></cc:Work></rdf:RDF></metadata><g
     inkscape:label="Camada 1"
     inkscape:groupmode="layer"
     id="layer1"
     transform="translate(-35.378205,37.606547)"><g
       id="g5293"
       transform="matrix(1.1170889,0,0,1.1170889,8.553723,-431.94391)"
       inkscape:export-filename="..\Desktop\g5293.svg"
       inkscape:export-xdpi="200"
       inkscape:export-ydpi="200"><path
         inkscape:connector-curvature="0"
         id="path5289"
         d="m 73.945804,353.00522 c -0.08596,0 -0.152325,0.10523 -0.199232,0.31572 l -0.05879,0.26781 c -0.04687,0.21053 -0.08984,0.41806 -0.129011,0.62222 -0.03908,0.20416 -0.171745,0.35103 -0.398466,0.44036 -1.024133,0.41471 -1.934689,0.92177 -2.732102,1.52146 -0.375258,0.28072 -0.742688,0.56484 -1.102313,0.85193 -0.148538,0.12118 -0.223184,0.22639 -0.223184,0.31572 0,0.10207 0.101546,0.21012 0.304837,0.32498 l 0.774068,0.40229 c 0.09386,0.0637 0.156547,0.0952 0.187801,0.0952 0.03129,0 0.101757,-0.0446 0.211208,-0.13391 0.05478,-0.0511 0.222627,-0.16882 0.50407,-0.35382 0.899045,-0.60611 1.438546,-0.95081 1.618358,-1.03373 0.03129,-0.0127 0.05881,-0.0253 0.0822,-0.0381 0.02349,-0.0192 0.04673,-0.0289 0.07022,-0.0289 0.04688,0 0.07022,0.0258 0.07022,0.0768 l -0.04681,0.26784 c -0.195445,0.75917 -0.379443,1.50864 -0.551428,2.2487 -0.211069,0.89315 -0.367056,1.79585 -0.468687,2.70815 l -0.01198,0.23953 c 0,0.11483 0.0074,0.23261 0.02341,0.35382 0.02349,0.31898 0.191364,0.5677 0.504072,0.74632 l 0.293405,0.17255 c 0.273615,0.14674 0.527558,0.30908 0.762093,0.48774 0.06257,0.0382 0.109734,0.0577 0.140988,0.0577 h 5.43e-4 c 0.101652,0 0.152418,-0.0417 0.152418,-0.12463 0,-0.0191 -0.01189,-0.0444 -0.03538,-0.0763 -0.02339,-0.0255 -0.04673,-0.0476 -0.07022,-0.067 -0.0157,-0.0192 -0.03122,-0.0323 -0.04681,-0.0387 -0.06257,-0.051 -0.101967,-0.1145 -0.117581,-0.19106 -0.01559,-0.13397 -0.05445,-0.26148 -0.117035,-0.38269 l -0.01198,-0.0675 c 0,-0.0511 0.01971,-0.10197 0.05879,-0.15295 0.03908,-0.0574 0.06232,-0.11172 0.07022,-0.16277 0.0074,-0.051 0.01551,-0.0985 0.02341,-0.14315 0.0157,-0.0511 0.02341,-0.1088 0.02341,-0.17257 0.0074,-0.0702 0.01979,-0.14337 0.03538,-0.21991 0.02349,-0.0829 0.03538,-0.16585 0.03538,-0.24877 v -0.21067 c 0.0074,-0.0766 0.03478,-0.14689 0.08166,-0.21065 0.04688,-0.0702 0.0744,-0.1468 0.0822,-0.22974 0.0074,-0.0829 0.01969,-0.1721 0.03538,-0.26782 l 0.02341,-0.1241 c 0.03908,-0.0956 0.07013,-0.1946 0.09362,-0.29669 0.0074,-0.0511 0.01969,-0.099 0.03538,-0.14369 0,-0.0256 -0.0042,-0.0513 -0.01198,-0.0768 -0.0074,-0.0255 -0.01914,-0.0478 -0.03484,-0.067 -0.01559,-0.0255 -0.02748,-0.057 -0.03538,-0.0952 0,-0.0382 0.02753,-0.0737 0.0822,-0.1056 0.01569,-0.0191 0.03122,-0.0352 0.04681,-0.0479 0.02349,-0.0192 0.05878,-0.12433 0.105602,-0.31572 0.195447,-0.66349 0.292861,-1.05569 0.292861,-1.1769 0,-0.0637 -0.01135,-0.12436 -0.03484,-0.1818 -0.0157,-0.0192 -0.02395,-0.0415 -0.02395,-0.067 0,-0.0191 0.01189,-0.0351 0.03538,-0.0479 0.109447,-0.0319 0.164394,-0.10513 0.164394,-0.21993 0.01569,-0.0319 0.03133,-0.0993 0.04681,-0.20139 0.171997,-0.6507 0.332126,-1.30133 0.480663,-1.95205 0.05478,-0.2488 0.214862,-0.41117 0.480663,-0.48774 0.390891,-0.12124 0.899306,-0.29044 1.524729,-0.50736 0.336159,-0.12762 0.691685,-0.2042 1.066932,-0.22971 0.04698,-0.006 0.09774,-0.019 0.152417,-0.0381 0.164171,-0.0382 0.316535,-0.0577 0.457258,-0.0577 0.218903,0 0.433979,0.0446 0.645056,0.1339 0.06257,0.0256 0.125305,0.0638 0.187802,0.11488 0.06247,0.051 0.113295,0.0767 0.15242,0.0767 0.07037,0 0.105603,-0.0355 0.105603,-0.1056 l -0.01198,-0.0474 c -0.07037,-0.11486 -0.164168,-0.20747 -0.281429,-0.27762 -0.281446,-0.17224 -0.535374,-0.36377 -0.762094,-0.57428 -0.304891,-0.26156 -0.652633,-0.39248 -1.043523,-0.39248 -0.242343,0 -0.668889,0.0577 -1.278684,0.17256 -0.195444,0.0383 -0.386671,0.0829 -0.574292,0.13391 l -0.293404,0.0669 c -0.02349,0.0192 -0.09344,0.0289 -0.210665,0.0289 -0.03129,0 -0.06647,-0.009 -0.105605,-0.0289 -0.07037,-0.0574 -0.148626,-0.0991 -0.234613,-0.12463 -0.140735,-0.051 -0.316945,-0.17224 -0.528022,-0.36363 -0.257998,-0.22328 -0.437822,-0.33479 -0.539454,-0.33479 z m -4.022217,0.0479 c -0.179804,-3e-5 -0.652966,0.31218 -1.419127,0.93736 -0.899032,0.75919 -1.71579,1.56981 -2.450674,2.43108 -0.766137,0.84851 -1.215998,1.55968 -1.348903,2.13388 -0.01559,0.0574 -0.02286,0.11795 -0.02286,0.1818 0,0.27433 0.136824,0.50412 0.41044,0.68916 0.336158,0.26795 0.668359,0.53891 0.996711,0.81324 0.336155,0.26795 1.008332,0.45945 2.016821,0.57431 0.218907,0.0447 0.328247,0.0892 0.328247,0.1339 0,0.0256 -0.01971,0.0542 -0.05879,0.0861 -0.648874,0.5678 -1.500892,1.04342 -2.556275,1.4262 -0.328364,0.1787 -0.726881,0.27079 -1.195944,0.27709 -0.117264,0 -0.175826,0.0543 -0.175826,0.16274 0,0.0766 0.16014,0.22346 0.480663,0.44039 0.320535,0.21053 0.531461,0.36664 0.633081,0.4687 0.101652,0.10207 0.218747,0.15348 0.351652,0.15348 v -5.3e-4 c 0.05478,0 0.25841,-0.0446 0.610221,-0.13392 0.656689,-0.1595 1.301383,-0.41789 1.934624,-0.77514 0.351801,-0.1595 0.60574,-0.32529 0.762095,-0.49755 0.336167,-0.19138 0.613964,-0.43036 0.832859,-0.71745 0.109445,-0.13398 0.163849,-0.26488 0.163849,-0.39248 0,-0.17865 -0.09386,-0.32843 -0.281432,-0.44963 -0.273615,-0.20416 -0.531169,-0.42769 -0.773524,-0.67011 -0.273616,-0.24242 -0.60636,-0.40532 -0.99725,-0.48826 -0.383075,-0.0829 -0.76967,-0.15266 -1.160558,-0.21012 -0.336167,-0.0447 -0.578719,-0.0864 -0.727257,-0.12467 -0.09386,-0.0256 -0.14044,-0.0701 -0.140444,-0.13391 0,-0.0447 0.03887,-0.13387 0.117039,-0.26782 0.203259,-0.35727 0.429737,-0.70198 0.679894,-1.03373 0.06257,-0.0766 0.172434,-0.23606 0.32879,-0.47849 0.109456,-0.0829 0.398634,-0.37963 0.867697,-0.89002 0.383062,-0.41467 0.785761,-0.82285 1.207916,-1.22478 0.132915,-0.15312 0.296648,-0.27091 0.492096,-0.35383 0.06247,-0.0255 0.113848,-0.0638 0.152963,-0.11485 0.01559,0.2233 0.128607,0.35078 0.339676,0.38267 0.04698,0 0.08638,-0.0223 0.117578,-0.0669 0.03129,-0.0447 0.08205,-0.1184 0.15242,-0.22047 0.07047,-0.1085 0.128981,-0.19425 0.175826,-0.25802 0.257983,-0.39557 0.387034,-0.62826 0.387034,-0.69842 0,-0.12121 -0.07828,-0.22009 -0.234617,-0.29665 -0.148538,-0.0829 -0.269812,-0.17556 -0.363627,-0.27762 -0.265811,-0.32537 -0.449264,-0.4946 -0.550884,-0.50734 z m -21.131203,0.009 c -0.250169,0 -0.50827,0.0829 -0.774068,0.24878 -0.625427,0.3828 -1.188246,0.81382 -1.688583,1.29228 -1.727731,1.64599 -2.885006,3.52797 -3.471333,5.64601 -0.156375,0.45297 -0.234614,0.91546 -0.234614,1.38758 0,0.24878 0.02334,0.50087 0.07022,0.75608 0.09386,0.59332 0.500652,1.00154 1.219892,1.22482 0.218906,0.0638 0.425662,0.14665 0.621107,0.24877 0.297075,0.14677 0.594574,0.2199 0.891648,0.2199 0.367431,0 0.777895,-0.0954 1.231326,-0.28687 0.484693,-0.21689 1.058899,-0.61249 1.723417,-1.18669 0.226709,-0.21051 0.477035,-0.40201 0.750662,-0.57428 0.281434,-0.1595 0.476809,-0.37957 0.586268,-0.66031 0.03908,-0.0893 0.05879,-0.15619 0.05879,-0.20087 0,-0.0702 -0.06268,-0.10502 -0.187803,-0.10502 l -0.199231,0.009 c -0.03129,-0.12763 -0.152541,-0.25508 -0.363629,-0.3827 -0.20327,-0.12754 -0.340074,-0.19161 -0.410439,-0.19161 -0.09386,0 -0.206771,0.0737 -0.339676,0.22045 -0.601968,0.58056 -1.259131,1.11626 -1.970557,1.60748 -0.453427,0.32537 -0.949372,0.60609 -1.488801,0.84212 -0.109456,0.0447 -0.199632,0.067 -0.269999,0.067 -0.125111,0 -0.214783,-0.0926 -0.269454,-0.27762 -0.07816,-0.28071 -0.117579,-0.56766 -0.117579,-0.86115 0,-0.84212 0.250332,-1.85001 0.750662,-3.02387 0.508151,-1.14834 1.24303,-2.19452 2.204624,-3.13873 0.109468,-0.10207 0.191378,-0.217 0.246046,-0.34459 0.03129,-0.0894 0.09395,-0.15968 0.187802,-0.21065 0.273608,-0.17227 0.49648,-0.38266 0.668466,-0.63147 0.117271,-0.14671 0.285177,-0.26502 0.504068,-0.35435 0.06257,-0.0319 0.101968,-0.0479 0.117582,-0.0479 0.02349,0 0.05036,0.009 0.08165,0.0289 0.03908,0.0192 0.05879,0.0449 0.05879,0.0768 0,0.0958 -0.08607,0.3444 -0.258022,0.74629 -0.16417,0.39551 -0.293176,0.79744 -0.387034,1.20574 l -0.01143,0.11487 c 0,0.15312 0.07405,0.24916 0.222637,0.28742 0.218906,0.0893 0.476995,0.1339 0.774071,0.1339 0.07816,-0.0638 0.128927,-0.18501 0.152417,-0.36363 0.0074,-0.0702 0.01925,-0.11471 0.03484,-0.1339 0.02338,-0.0511 0.03999,-0.10238 0.04736,-0.15351 L 49.753712,355.78 c 0.328349,-0.56777 0.539225,-1.16121 0.633081,-1.78002 0,-0.23606 -0.117113,-0.39897 -0.351653,-0.48829 -0.226717,-0.0638 -0.429859,-0.15299 -0.609674,-0.26782 -0.218892,-0.12126 -0.429818,-0.18182 -0.63308,-0.18182 z m 35.707318,1.06257 c -0.140721,0 -0.265611,0.14981 -0.37506,0.44964 -0.09386,0.22331 -0.179839,0.44337 -0.258022,0.66029 -0.218903,0.56781 -0.453667,1.13551 -0.703847,1.7033 -0.8834,1.92668 -1.406819,3.59486 -1.571,5.00477 l -0.01198,0.2493 c 0,0.21056 0.07046,0.35691 0.21121,0.43985 0.132904,0.083 0.199232,0.15327 0.199232,0.21065 0,0.0638 -0.07048,0.14672 -0.211208,0.24878 -0.0074,0 -0.01143,0.003 -0.01143,0.009 -0.398707,0.27433 -0.707593,0.60647 -0.926488,0.99564 -0.07037,0.12118 -0.105603,0.23611 -0.105603,0.34456 0,0.19777 0.105725,0.36988 0.316813,0.51659 0.203251,0.15312 0.578465,0.43037 1.12572,0.8323 0.03908,0.0319 0.08985,0.0479 0.152417,0.0479 0.03919,0 0.08216,-0.016 0.129012,-0.0479 -0.148538,-0.1595 -0.222639,-0.30585 -0.222639,-0.43983 0,-0.21051 0.163753,-0.45006 0.492094,-0.71801 0.437809,-0.37641 0.946212,-0.73027 1.524729,-1.06201 1.039765,-0.68262 2.228123,-1.04961 3.564964,-1.10068 0.117231,0 0.195487,-0.0349 0.23461,-0.10503 v -0.0289 c 0,-0.0829 -0.08237,-0.16922 -0.246587,-0.25855 -0.101652,-0.0574 -0.187671,-0.12093 -0.258027,-0.19109 -0.218893,-0.26798 -0.429823,-0.41828 -0.633074,-0.45016 -0.203261,-0.0382 -0.363418,-0.0572 -0.48067,-0.0572 -0.203261,0 -0.418333,0.0286 -0.645055,0.086 -0.641056,0.14673 -1.274359,0.32567 -1.899787,0.53617 -0.07037,0.0192 -0.133099,0.0289 -0.187802,0.0289 -0.07037,0 -0.132545,-0.016 -0.187258,-0.0479 -0.05467,-0.0382 -0.08219,-0.0863 -0.08219,-0.1437 0,-0.0319 0.01189,-0.0702 0.03538,-0.11488 0.07037,-0.1595 0.105064,-0.31268 0.105064,-0.45942 v -0.0479 c 0.01559,-0.24245 0.141077,-0.65688 0.375602,-1.24385 0.156367,-0.38278 0.28902,-0.77495 0.398466,-1.17688 0.109446,-0.33812 0.261802,-0.6857 0.457257,-1.04297 0.125079,-0.27434 0.230813,-0.55502 0.316814,-0.84212 0.09386,-0.33175 0.222874,-0.65759 0.387034,-0.97656 0.117241,-0.23605 0.195491,-0.47844 0.234613,-0.72727 0.01559,-0.0766 0.03122,-0.14637 0.04681,-0.21012 0.02349,-0.0703 0.03538,-0.13082 0.03538,-0.18179 0,-0.13398 -0.121277,-0.2426 -0.363628,-0.32554 -0.156356,-0.0574 -0.30872,-0.12144 -0.457258,-0.19161 -0.226709,-0.11483 -0.395166,-0.17202 -0.504612,-0.17202 z m -30.817405,0.14318 c -0.351799,0 -0.711464,0.0446 -1.078905,0.13392 -0.547234,0.10844 -1.035958,0.31937 -1.46594,0.63196 -0.140723,0.11486 -0.211208,0.22002 -0.211208,0.31576 0,0.0956 0.06688,0.18143 0.199777,0.25799 0.18766,0.0956 0.289246,0.18543 0.304837,0.26837 0.01559,0.0829 0.02341,0.14357 0.02341,0.18184 0,0.0958 -0.01563,0.19456 -0.04681,0.29665 -0.375247,2.00321 -0.563403,3.86922 -0.563403,5.59814 0,0.36362 0.03171,0.71753 0.09417,1.06201 0.09386,0.38278 0.355517,0.63777 0.7855,0.76537 0.469071,0.12758 0.7738,0.22018 0.914511,0.27762 0.05478,0.0192 0.09775,0.0289 0.129011,0.0289 h 5.44e-4 c 0.07037,0 0.105605,-0.0417 0.105605,-0.12467 l -0.01198,-0.0952 c -0.09386,-0.3254 -0.140444,-0.65121 -0.140444,-0.9766 0,-0.37639 0.02698,-0.83546 0.08165,-1.37774 0.0157,-0.24883 0.05509,-0.3861 0.117581,-0.41154 0.06257,-0.0255 0.109198,-0.0381 0.140442,-0.0381 0.109457,0 0.265971,0.0446 0.469233,0.13391 0.05467,0.0255 0.105511,0.0541 0.152417,0.0861 0.140723,0.10844 0.297246,0.16273 0.469231,0.16273 0.08596,0 0.167865,-0.0126 0.246048,-0.0381 0.08596,-0.0255 0.167864,-0.0483 0.246047,-0.0675 0.171997,-0.0511 0.4534,-0.14648 0.844291,-0.28687 0.922492,-0.34449 1.864681,-0.6378 2.826274,-0.88022 0.07827,-0.0192 0.148714,-0.0477 0.211208,-0.0861 0.117276,-0.0703 0.175826,-0.13425 0.175826,-0.19159 0,-0.0575 -0.05856,-0.11179 -0.175826,-0.16276 -0.297063,-0.11483 -0.562926,-0.26806 -0.797473,-0.45945 -0.171988,-0.14036 -0.363215,-0.21009 -0.574292,-0.21012 -0.117275,0 -0.242708,0.0223 -0.375604,0.067 -0.383073,0.14037 -0.672261,0.21012 -0.867697,0.21012 -0.125098,0 -0.187802,-0.0509 -0.187802,-0.15298 0,-0.0383 0.0074,-0.0864 0.02341,-0.1437 0.09386,-0.38917 0.262263,-0.74591 0.504616,-1.07128 0.336167,-0.44022 0.504069,-1.03364 0.504069,-1.78005 0,-0.44657 -0.215087,-0.79758 -0.645056,-1.05276 -0.117276,-0.0637 -0.246314,-0.12437 -0.387037,-0.18181 -0.132905,-0.0638 -0.265559,-0.13698 -0.398463,-0.21992 -0.422169,-0.26792 -0.774068,-0.41196 -1.0555,-0.43113 -0.281456,-0.0255 -0.476822,-0.0381 -0.586268,-0.0381 z m 10.37753,0.52584 5.43e-4,5.6e-4 c -0.117274,0 -0.223061,0.0795 -0.316813,0.23896 l -0.01143,0.0196 c -0.01559,0.0383 -0.148842,0.26123 -0.39901,0.66954 -0.398706,0.6635 -0.820548,1.32094 -1.266161,1.97167 -0.211088,0.30621 -0.469177,0.68869 -0.77407,1.14803 -0.132886,0.19776 -0.218954,0.31897 -0.258023,0.36363 -0.03129,0.0447 -0.06656,0.067 -0.105605,0.067 -0.06257,0 -0.144385,-0.0543 -0.246046,-0.16277 -0.422154,-0.47846 -0.770439,-1.12274 -1.044067,-1.93297 -0.0074,0 -0.01143,-0.003 -0.01143,-0.009 -0.03128,-0.12118 -0.07848,-0.23612 -0.140988,-0.34456 -0.04688,-0.0702 -0.08573,-0.22573 -0.117034,-0.46815 l -0.01198,-0.086 c -0.01559,-0.20416 -0.07786,-0.34822 -0.187255,-0.43111 -0.01612,-0.006 -0.02395,-0.0321 -0.02395,-0.0768 -0.0074,-0.23606 -0.140481,-0.35384 -0.398468,-0.35384 -0.140719,0 -0.308624,-0.0446 -0.504068,-0.13389 l -0.187802,-0.0675 c -0.171986,-0.0829 -0.328511,-0.12411 -0.46923,-0.12411 -0.148538,0 -0.222641,0.0954 -0.222641,0.28688 0,0.17227 0.06635,0.51067 0.199231,1.01467 0.257995,1.01435 0.723396,1.87532 1.395718,2.58349 0.23454,0.26156 0.539265,0.44964 0.914515,0.56449 0.484682,0.14038 0.734975,0.22327 0.750659,0.24877 0.01601,0.0191 0.02341,0.0352 0.02341,0.0479 0,0.0511 -0.07467,0.20187 -0.223184,0.45074 -0.406536,0.66346 -0.734567,1.39981 -0.984736,2.21004 -0.07037,0.25521 -0.105602,0.51304 -0.105602,0.77461 0.02349,0.29353 0.09395,0.47246 0.211208,0.5362 0.211088,0.0958 0.433929,0.14424 0.668465,0.14424 l 0.7855,0.0283 h 0.02341 5.46e-4 c 0.04688,0 0.07022,-0.0263 0.07022,-0.0773 0.0074,-0.0511 0.01143,-0.098 0.01143,-0.14265 0,-0.15312 0.01553,-0.31945 0.04681,-0.49807 0.140722,-0.64438 0.386886,-1.25951 0.738686,-1.84645 0.04698,-0.0766 0.08996,-0.15312 0.129011,-0.22971 0.03919,-0.0829 0.08216,-0.16589 0.129012,-0.24877 0.05478,-0.0893 0.109723,-0.182 0.164395,-0.27762 0.109446,-0.22966 0.254035,-0.44345 0.433849,-0.64123 l 0.07022,-0.11486 h -0.01143 l 0.152418,-0.23952 c 0.0074,-0.0892 0.05445,-0.16532 0.140443,-0.22918 0.117261,-0.29983 0.28571,-0.59077 0.504613,-0.87149 0.04688,-0.0702 0.116809,-0.1468 0.210665,-0.22974 h -0.01143 c 0.06257,-0.17862 0.151637,-0.35014 0.26891,-0.51602 0.02349,-0.0256 0.04309,-0.0552 0.05879,-0.0871 0.422165,-0.65713 0.793752,-1.33629 1.114289,-2.03805 0.07816,-0.17227 0.117036,-0.30315 0.117036,-0.39248 0,-0.0958 -0.07047,-0.15002 -0.211208,-0.16276 -0.179803,-0.0192 -0.363257,-0.07 -0.550886,-0.15296 l -0.129012,-0.0577 c -0.132904,-0.0829 -0.26972,-0.12411 -0.41044,-0.12411 z m -9.345983,0.24004 c 0.164192,0 0.281841,0.0253 0.352199,0.0763 0.09386,0.0893 0.14044,0.25507 0.14044,0.49751 0,0.35728 -0.07405,0.70199 -0.22264,1.03373 -0.383073,0.89313 -0.938116,1.69695 -1.665173,2.41151 l -0.293405,0.15295 c 0.02338,-0.14655 0.03538,-0.29039 0.03538,-0.43058 0,-0.11482 -0.0074,-0.22003 -0.02341,-0.31572 -0.0074,-0.0958 -0.01198,-0.18489 -0.01198,-0.26784 0,-0.22963 0.0316,-0.43715 0.09417,-0.62219 0.04687,-0.11483 0.07022,-0.22973 0.07022,-0.34456 v -0.20087 c 0,-0.35728 0.05077,-0.71115 0.15242,-1.06205 l 0.09362,-0.45942 c 0.03129,-0.2233 0.175851,-0.35081 0.433848,-0.3827 l 0.24659,-0.0289 c 0.273628,-0.0382 0.47262,-0.0572 0.597699,-0.0572 z m 23.10176,0.75559 c -0.179814,0 -0.390729,0.19493 -0.633082,0.58409 -0.531603,0.77834 -1.020326,1.57584 -1.465942,2.39243 l -0.281429,0.49752 c -0.367431,0.61881 -0.664384,1.25684 -0.891105,1.91394 -0.03908,0.10207 -0.05879,0.18788 -0.05879,0.25804 0,0.13397 0.121286,0.2489 0.363626,0.34456 0.336167,0.17227 0.699449,0.31284 1.090337,0.42132 0.164224,0.0447 0.277725,0.067 0.340223,0.067 0.101651,0 0.226508,-0.0766 0.375057,-0.22971 l 0.03538,-0.0191 c 0.555061,-0.54864 1.227228,-0.97283 2.016825,-1.27269 0.07037,-0.0255 0.137197,-0.0387 0.199778,-0.0387 0.132883,0 0.222546,0.0737 0.269452,0.22046 0.04688,0.14032 0.09407,0.27757 0.140988,0.41154 l 0.199234,0.62165 c 0.132905,0.49123 0.496174,0.79764 1.090338,0.91885 0.257846,0.0447 0.570719,0.11163 0.937917,0.20087 -0.242342,-0.5359 -0.429955,-1.05559 -0.562859,-1.55957 -0.09386,-0.30625 -0.16382,-0.52631 -0.210665,-0.66029 -0.08596,-0.20415 -0.129011,-0.37335 -0.129011,-0.50733 0,-0.10208 0.03105,-0.21068 0.09362,-0.32553 0.0157,-0.0255 0.01977,-0.0575 0.01198,-0.0957 0,-0.0318 -0.01563,-0.0572 -0.04681,-0.0763 -0.257985,-0.19142 -0.426431,-0.5007 -0.504614,-0.92809 -0.05478,-0.24883 -0.167691,-0.59354 -0.339676,-1.03373 -0.171997,-0.44659 -0.312971,-0.8965 -0.422416,-1.34945 -0.05467,-0.19781 -0.199324,-0.33161 -0.433849,-0.40173 -0.06257,-0.0255 -0.133028,-0.0478 -0.21121,-0.067 -0.07037,-0.0192 -0.144477,-0.0414 -0.222641,-0.067 -0.343993,-0.14674 -0.594306,-0.22046 -0.750659,-0.22046 z m 0.363625,2.39242 c 0.179815,0 0.351878,0.3956 0.516045,1.1867 v 0.0387 c 0,0.10844 -0.06268,0.1879 -0.187799,0.23897 -0.703599,0.28709 -1.114061,0.43057 -1.231324,0.43057 -0.132906,0 -0.199235,-0.0543 -0.199235,-0.16277 l 0.01143,-0.0669 c 0.156364,-0.47848 0.406677,-0.92155 0.750662,-1.32986 l 0.175826,-0.24877 c 0.04688,-0.0574 0.101852,-0.0866 0.164393,-0.0866 z m 5.599751,7.65576 5.44e-4,0.001 c -0.03613,0 -0.06403,0.0395 -0.08383,0.11923 l -0.02504,0.0985 c -0.01643,0.075 -0.03463,0.15125 -0.05444,0.22862 -0.01643,0.075 -0.07237,0.12793 -0.167662,0.15839 -0.430475,0.1524 -0.813404,0.33872 -1.148582,0.55906 -0.03624,0.0238 -0.04899,0.0349 -0.08166,0.0566 0.01759,-0.10334 0.03267,-0.19128 0.03267,-0.20087 0,-0.0234 0.0058,-0.0468 0.01524,-0.0702 0.02623,-0.061 0.04889,-0.1229 0.06859,-0.18617 0.0296,-0.10549 0.07047,-0.20895 0.123021,-0.30973 0.0063,-0.0117 0.0098,-0.0232 0.0098,-0.0349 0,-0.0469 -0.03603,-0.074 -0.108325,-0.0811 -0.04509,0 -0.07827,0.004 -0.103969,0.0105 v -0.003 l -0.0033,0.002 c -0.08796,-0.0699 -0.189234,-0.12414 -0.307014,-0.16385 -0.0394,-0.0137 -0.07229,-0.0213 -0.09852,-0.0213 -0.04266,0 -0.08038,0.0256 -0.113226,0.0773 -0.02949,0.0516 -0.04986,0.0965 -0.05934,0.13392 -0.07226,0.17347 -0.120095,0.35025 -0.143164,0.53075 l -0.03429,0.21066 v 0.0174 c 0,0.0469 0.04782,0.0797 0.143163,0.0985 0.06247,0.0187 0.116177,0.0279 0.235705,0.0206 0.0652,0.0455 0.144075,0.0634 0.203044,0.0675 -0.197058,0.13802 -0.329879,0.24178 -0.329879,0.27436 0,0.0205 0.01218,0.0414 0.0343,0.062 -0.03508,-0.008 -0.0671,-0.0151 -0.108871,-0.0267 -0.09849,-0.0304 -0.175999,-0.0457 -0.231895,-0.0457 -0.069,0 -0.120094,0.0262 -0.15296,0.0778 -0.06247,0.10546 -0.1265,0.33041 -0.192158,0.67498 -0.0493,0.27895 -0.07403,0.55775 -0.07403,0.83668 0,0.17581 0.01055,0.30683 0.02994,0.39357 0.0095,0.0329 0.02113,0.0648 0.0343,0.0952 0.0493,0.12897 0.166002,0.20998 0.350019,0.24279 l 0.16276,0.0206 c 0.124869,0.0117 0.248033,0.0341 0.369615,0.067 0.0063,0.002 0.01719,0.003 0.02994,0.003 0.03244,-0.004 0.04899,-0.0186 0.04899,-0.0419 0,-0.0117 -0.0063,-0.0237 -0.0196,-0.0354 -0.07584,-0.0679 -0.117247,-0.14518 -0.123568,-0.23188 -0.0063,-0.0891 -0.0093,-0.1782 -0.0093,-0.26729 0.0063,-0.25786 0.03627,-0.54857 0.08873,-0.87204 0.03287,-0.26255 0.07542,-0.48894 0.127921,-0.67883 0.0042,-0.0141 0.005,-0.0282 0.006,-0.0424 0.02591,0.0119 0.05193,0.0231 0.07785,0.0354 0.04266,0.0235 0.07229,0.0349 0.08873,0.0349 0.01633,0 0.0428,-0.0162 0.07893,-0.049 l 0.06913,-0.0457 0.142621,-0.0844 c 0.453484,-0.26722 0.703039,-0.40065 0.749028,-0.40065 0.01643,0 0.02504,0.008 0.02504,0.0245 0,0.0258 -0.0063,0.0587 -0.01959,0.0985 l -0.231895,0.82957 c -0.0887,0.32818 -0.154359,0.65901 -0.197054,0.99182 l -0.005,0.0876 c 0,0.0422 0.0029,0.0855 0.0093,0.13009 0.0095,0.1172 0.08026,0.20965 0.211751,0.27763 l 0.123025,0.0598 c 0.115008,0.0539 0.222047,0.11399 0.320623,0.17966 0.0296,0.014 0.05107,0.0206 0.06424,0.0206 l 5.44e-4,-5.6e-4 c 0.01643,0 0.02994,-0.004 0.03973,-0.0136 0.01317,-0.0117 0.01959,-0.0227 0.01959,-0.0321 0,-0.007 -0.0029,-0.0152 -0.0093,-0.0245 -0.06226,-0.0446 -0.09604,-0.0823 -0.09962,-0.11268 -0.0095,-0.047 -0.02592,-0.0936 -0.04899,-0.14044 -0.0063,-0.009 -0.0093,-0.0174 -0.0093,-0.0246 0,-0.014 0.0084,-0.0317 0.02504,-0.0528 0.01633,-0.0211 0.0293,-0.0597 0.0392,-0.11594 l 0.01471,-0.0632 c 0,-0.0258 0.0035,-0.053 0.0098,-0.0811 0.0095,-0.0304 0.01416,-0.061 0.01416,-0.0914 v -0.0741 c 0.0032,-0.0281 0.0146,-0.0538 0.0343,-0.0773 0.01991,-0.0258 0.03341,-0.0524 0.03973,-0.0806 0.0032,-0.0492 0.0095,-0.0988 0.01959,-0.14808 v -0.003 c 0.01991,-0.0352 0.03288,-0.0705 0.0392,-0.10561 l 0.01524,-0.0566 v -0.0277 c -0.0197,-0.0211 -0.02994,-0.0436 -0.02994,-0.067 0,-0.0117 0.01056,-0.0231 0.02994,-0.0349 0.02275,-0.014 0.03572,-0.0275 0.0392,-0.0392 l 0.05444,-0.18235 c 0.06247,-0.18055 0.09362,-0.29446 0.09362,-0.3413 0,-0.0234 -0.0053,-0.0458 -0.01469,-0.067 -0.0032,-0.007 -0.0048,-0.0152 -0.0048,-0.0245 0,-0.007 0.0029,-0.0121 0.0093,-0.0141 0.02981,-0.009 0.04812,-0.0208 0.05444,-0.0349 0.0095,-0.014 0.01612,-0.0332 0.01959,-0.0566 0.0063,-0.0258 0.01327,-0.0481 0.0196,-0.067 0.069,-0.23907 0.134619,-0.47781 0.197055,-0.71689 0.02296,-0.0914 0.09238,-0.15156 0.207398,-0.17966 l 0.31028,-0.0876 c 0.08216,-0.0258 0.166061,-0.0506 0.251491,-0.074 l 0.07403,-0.0207 c 0.1413,-0.0492 0.290813,-0.0788 0.448545,-0.0882 l 0.06423,-0.0109 0.0098,-0.003 c 0.06247,-0.014 0.12323,-0.0218 0.182355,-0.0218 0.151163,0 0.277556,0.0362 0.379418,0.10886 0.01317,0.007 0.02497,0.0109 0.03487,0.0109 0.01317,0 0.02444,-0.004 0.03434,-0.0109 0.0095,-0.009 0.01475,-0.0175 0.01475,-0.0245 0,-0.007 -0.0032,-0.0141 -0.0095,-0.0213 -0.02634,-0.0422 -0.06563,-0.0761 -0.118127,-0.10176 -0.11501,-0.0633 -0.222048,-0.13327 -0.320624,-0.21067 -0.12487,-0.0961 -0.271164,-0.14423 -0.438748,-0.14423 -0.101862,0 -0.280966,0.021 -0.537275,0.0631 -0.08206,0.014 -0.162785,0.0302 -0.241693,0.049 -0.108467,0.0258 -0.175694,0.0387 -0.201954,0.0387 -0.0197,0 -0.03583,-0.005 -0.04899,-0.0141 -0.03276,-0.0188 -0.06567,-0.0326 -0.09853,-0.0419 -0.03287,-0.0117 -0.0625,-0.0237 -0.08873,-0.0354 -0.03624,-0.0235 -0.07384,-0.0492 -0.113226,-0.0773 -0.03602,-0.0304 -0.07594,-0.061 -0.118668,-0.0914 -0.0592,-0.0375 -0.103232,-0.056 -0.132821,-0.056 z m -3.214398,0.15242 c -0.07563,0 -0.27458,0.11486 -0.596612,0.34458 -0.3779,0.27895 -0.721028,0.57628 -1.029913,0.89272 -0.321978,0.31177 -0.511312,0.57344 -0.567215,0.78442 -0.0063,0.0211 -0.0098,0.0436 -0.0098,0.067 0,0.10081 0.05752,0.18514 0.172561,0.25312 0.141287,0.0985 0.281124,0.19804 0.419148,0.29885 0.141292,0.0985 0.423665,0.16851 0.847558,0.21068 0.09196,0.0163 0.138265,0.0331 0.138265,0.0495 0,0.009 -0.0084,0.0198 -0.02504,0.0316 -0.272745,0.20861 -0.63094,0.383 -1.074552,0.52366 -0.138014,0.0658 -0.305275,0.10018 -0.502436,0.10239 -0.0493,0 -0.07403,0.0195 -0.07403,0.0593 0,0.0281 0.06721,0.082 0.201955,0.16166 0.134686,0.0774 0.223421,0.13505 0.266188,0.17257 0.04256,0.0374 0.09238,0.0559 0.148064,0.056 0.02317,-1.1e-4 0.107743,-0.0168 0.2553,-0.0495 0.276041,-0.0586 0.547104,-0.15343 0.813262,-0.2847 0.147927,-0.0586 0.254968,-0.11962 0.320623,-0.18289 0.141302,-0.0704 0.258018,-0.158 0.350019,-0.26347 0.04603,-0.0493 0.06913,-0.0974 0.06913,-0.14425 0,-0.0656 -0.03982,-0.12096 -0.118669,-0.16549 -0.115009,-0.075 -0.223117,-0.15695 -0.324979,-0.24605 -0.115017,-0.089 -0.254854,-0.1486 -0.41915,-0.1791 -0.16101,-0.0304 -0.323444,-0.0562 -0.487739,-0.0773 -0.141303,-0.0164 -0.243494,-0.0317 -0.305927,-0.0457 -0.0394,-0.009 -0.05879,-0.026 -0.05879,-0.0495 0,-0.0164 0.01613,-0.0493 0.04899,-0.0985 0.08543,-0.13127 0.181182,-0.25753 0.28633,-0.3794 0.02634,-0.0281 0.07205,-0.0868 0.137722,-0.17585 h 5.43e-4 v -5.2e-4 c 0.04614,-0.0307 0.167314,-0.13939 0.364172,-0.32662 0.161009,-0.15237 0.330438,-0.30251 0.507881,-0.45019 0.05583,-0.0562 0.1247,-0.0996 0.206852,-0.13011 0.02633,-0.009 0.0478,-0.0232 0.06424,-0.0419 0.0063,0.0821 0.05393,0.12871 0.142621,0.14044 0.0197,0 0.03648,-0.008 0.04954,-0.0246 0.01317,-0.0164 0.03464,-0.0436 0.06424,-0.0811 0.0296,-0.0398 0.05423,-0.0713 0.07403,-0.0947 0.108445,-0.14534 0.162763,-0.23059 0.162759,-0.25638 0,-0.0446 -0.0329,-0.0813 -0.09852,-0.10942 -0.06247,-0.0304 -0.113564,-0.0642 -0.152963,-0.10175 -0.111678,-0.11932 -0.189126,-0.18127 -0.231893,-0.18618 z m -11.928388,0.008 5.43e-4,5.6e-4 c -0.04277,0 -0.08049,0.0256 -0.113225,0.0773 -0.02949,0.0515 -0.04986,0.0964 -0.05934,0.13391 -0.07226,0.17348 -0.120096,0.35025 -0.143164,0.53074 l -0.0343,0.21068 v 0.0179 c 0,0.0469 0.04783,0.0798 0.143164,0.0985 0.06247,0.0186 0.116185,0.0277 0.162217,0.0277 0.0053,0 0.0084,-0.003 0.01252,-0.003 0.03845,0.0467 0.235205,0.0658 0.288505,0.0658 h 5.46e-4 c 0.06236,0 0.09882,-0.0192 0.108326,-0.0566 0.02633,-0.15236 0.03973,-0.23433 0.03973,-0.24604 0,-0.0234 0.0054,-0.0468 0.01469,-0.0702 0.02634,-0.061 0.04944,-0.12297 0.06913,-0.18618 0.0296,-0.1055 0.07058,-0.20892 0.123022,-0.30973 0.0053,-0.0117 0.0093,-0.0232 0.0093,-0.0349 0,-0.0469 -0.03645,-0.0737 -0.108872,-0.0811 -0.04603,0 -0.07381,-0.0383 -0.09635,-0.0528 -0.0849,-0.0922 -0.199669,-0.0619 -0.317903,-0.10176 v 5.3e-4 c -0.0394,-0.0137 -0.07219,-0.0213 -0.09852,-0.0213 z m 7.754294,0.1214 c -0.374614,0 -0.69839,0.0724 -0.971123,0.21773 -0.069,0.0422 -0.103421,0.0823 -0.103432,0.11976 0,0.0305 0.02321,0.0595 0.06913,0.0876 0.07532,0.0422 0.114608,0.0871 0.118125,0.13388 0,0.0492 -0.0095,0.0998 -0.0294,0.15134 -0.210297,0.59775 -0.364667,1.18912 -0.463243,1.77515 l -0.02014,0.17581 c -0.0197,0.10312 -0.0294,0.20513 -0.0294,0.30594 0,0.0563 0.0029,0.11154 0.0093,0.16547 0.0197,0.14292 0.117064,0.24253 0.291229,0.29885 l 0.113225,0.0387 c 0.0887,0.0234 0.174237,0.053 0.256389,0.0882 0.02623,0.009 0.04562,0.0136 0.05879,0.0136 l 0.0011,5.3e-4 c 0.0296,0 0.04409,-0.0176 0.04409,-0.0528 v -0.0206 c -0.01643,-0.0797 -0.02449,-0.15836 -0.02449,-0.2357 0,-0.11957 0.0329,-0.31545 0.09853,-0.58738 0.02623,-0.11948 0.05096,-0.18295 0.07403,-0.18996 0.02623,-0.009 0.04562,-0.0141 0.05879,-0.0141 0.04266,0 0.106714,0.022 0.192156,0.0643 0.02296,0.0117 0.04443,0.0246 0.06423,0.0387 0.04603,0.0492 0.113227,0.0734 0.201954,0.0734 0.0296,0 0.06076,-0.003 0.09363,-0.0109 0.03287,-0.006 0.06784,-0.0125 0.103969,-0.0174 0.07226,-0.0142 0.193836,-0.0428 0.364717,-0.0849 0.400897,-0.10081 0.809651,-0.18277 1.226969,-0.24604 0.0296,-0.004 0.05923,-0.0122 0.08873,-0.024 0.05594,-0.0234 0.08383,-0.0464 0.08383,-0.0675 0,-0.0212 -0.02147,-0.0412 -0.06424,-0.0599 -0.12158,-0.0515 -0.226453,-0.11586 -0.31518,-0.19326 -0.07226,-0.0609 -0.157824,-0.0914 -0.256389,-0.0914 -0.04277,0 -0.08679,0.006 -0.132821,0.018 -0.138014,0.0328 -0.257956,0.049 -0.359819,0.049 -0.05909,0 -0.08873,-0.0177 -0.08873,-0.0528 0,-0.0164 0.0063,-0.0359 0.0196,-0.0593 0.05583,-0.14066 0.142994,-0.26742 0.261289,-0.37996 0.0986,-0.0937 0.167457,-0.19334 0.206851,-0.29884 0.05909,-0.15705 0.08873,-0.28478 0.08873,-0.38322 0,-0.17115 -0.123164,-0.31502 -0.369614,-0.43221 -0.0592,-0.0281 -0.115137,-0.0587 -0.16766,-0.0914 -0.16102,-0.10783 -0.312144,-0.17127 -0.453444,-0.19 -0.138006,-0.0212 -0.251504,-0.0316 -0.340222,-0.0316 z m -11.33613,0.0223 c -0.814921,0 -1.527555,0.13011 -2.13876,0.39032 -0.210329,0.0867 -0.351788,0.17257 -0.424052,0.25691 -0.01643,0.0234 -0.02449,0.0453 -0.02449,0.0664 0,0.0399 0.02789,0.0743 0.08383,0.10228 l 0.05389,0.0251 c 0.05909,0.0258 0.116668,0.0477 0.172561,0.0665 0.07226,0.0235 0.14327,0.0516 0.212297,0.0844 0.01643,0.007 0.03409,0.0109 0.05389,0.0109 0.02939,0 0.04606,-0.008 0.04954,-0.0246 v -0.0109 c -0.0032,-0.002 -0.02321,-0.029 -0.05934,-0.0806 l 0.0055,0.003 c 0,-0.005 -0.0023,-0.008 -0.0055,-0.0105 v -0.0174 c 0.0063,-0.005 0.01327,-0.007 0.01959,-0.007 0.0032,0.003 0.0061,0.005 0.0093,0.007 0.0032,0.002 0.0056,0.003 0.0098,0.003 l -0.0055,-0.003 0.05879,-0.0321 c 0.03613,-0.0258 0.077,-0.0475 0.123024,-0.0665 0.604622,-0.26957 1.357602,-0.405 2.257972,-0.405 0.36146,0 0.702997,0.0329 1.025017,0.0985 0.07553,0.0164 0.123434,0.0283 0.143163,0.0354 0.108446,0.0281 0.162217,0.12297 0.162217,0.2847 0,0.0398 -0.0053,0.0808 -0.01469,0.12302 -0.05909,0.22738 -0.167791,0.44036 -0.325523,0.63961 -0.368032,0.50162 -0.895102,0.95776 -1.581887,1.36796 -0.0493,0.0304 -0.101968,0.0595 -0.157862,0.0876 -0.0032,0 -0.0055,10e-4 -0.0055,0.003 -0.0197,0.0117 -0.03583,0.0179 -0.04899,0.0179 -0.0296,0 -0.04464,-0.011 -0.04464,-0.0321 v -0.0245 l 0.01524,-0.0876 c 0.0197,-0.13598 0.09829,-0.42913 0.236247,-0.87913 0.06247,-0.20867 0.116763,-0.41831 0.162763,-0.6293 l 0.08383,-0.44309 c 0,-0.0492 -0.01668,-0.0965 -0.04954,-0.141 -0.01654,-0.0306 -0.04443,-0.0506 -0.08383,-0.0598 -0.08543,-0.0211 -0.17257,-0.0559 -0.261289,-0.10513 -0.0887,-0.0492 -0.155962,-0.074 -0.201952,-0.074 -0.05594,0 -0.09681,0.0209 -0.123024,0.0632 -0.0296,0.0515 -0.07584,0.18074 -0.138265,0.38705 -0.05583,0.17344 -0.115026,0.34542 -0.177459,0.51658 -0.131422,0.3516 -0.231456,0.70903 -0.300483,1.07236 -0.0296,0.11252 -0.04463,0.22645 -0.04463,0.3413 0,0.10784 0.0135,0.21553 0.03973,0.32336 l 0.0055,0.0213 c 0,0.0188 -0.01613,0.0278 -0.04899,0.0278 l -0.01959,0.003 c -0.0493,0.004 -0.07403,0.0247 -0.07403,0.0598 0,0.0539 0.03116,0.0925 0.09362,0.11598 0.09533,0.0538 0.193722,0.10677 0.295584,0.15839 0.05909,0.0281 0.116657,0.0587 0.17256,0.0914 0.07553,0.0493 0.125026,0.0735 0.148064,0.0735 h 0.05879 l 0.135544,-0.002 0.04899,-0.011 c 0.04603,-0.009 0.08911,-0.0208 0.128465,-0.0349 0.0395,-0.0164 0.0674,-0.0436 0.08383,-0.0811 0.0032,-0.006 0.0085,-0.0125 0.0147,-0.0174 0.0095,-0.004 0.0195,-0.009 0.0294,-0.0141 0.0095,-0.004 0.02167,-0.0105 0.03484,-0.0174 0.05583,-0.0306 0.118217,-0.0529 0.187256,-0.067 0.0394,-0.0398 0.08891,-0.0751 0.148063,-0.1056 0.0394,-0.0188 0.07176,-0.0389 0.09799,-0.0599 0.05256,-0.0445 0.11869,-0.075 0.197598,-0.0914 0.0063,-0.009 0.02429,-0.0245 0.05389,-0.0457 0.154438,-0.0867 0.295896,-0.18395 0.424049,-0.29178 0.07563,-0.0587 0.157877,-0.11101 0.246593,-0.15787 -0.01643,0.0306 -0.04117,0.0571 -0.07403,0.0806 0,0.003 -0.0023,0.005 -0.0055,0.007 -0.0032,0 -0.0048,7.3e-4 -0.0048,0.003 -0.0394,0.0258 -0.06587,0.0563 -0.07893,0.0914 0.04603,-0.0188 0.113227,-0.0678 0.201955,-0.14752 0.18073,-0.14766 0.364669,-0.32447 0.551973,-0.53075 0.249737,-0.26016 0.433678,-0.53324 0.551973,-0.81923 0.04603,-0.10783 0.06913,-0.2194 0.06913,-0.33423 l -0.0055,-0.0631 c -0.0063,-0.21567 -0.132964,-0.39387 -0.379414,-0.53458 l -0.408809,-0.25311 c -0.128156,-0.0773 -0.272839,-0.13448 -0.433849,-0.17202 -0.358182,-0.0844 -0.761018,-0.12682 -1.207916,-0.12682 z m 6.65307,0.20956 c -0.05256,0 -0.09501,0.0329 -0.127921,0.0985 -0.476468,0.78997 -0.87877,1.51626 -1.207376,2.17958 l -0.0055,0.0141 c -0.01317,0.0328 -0.03627,0.049 -0.06913,0.049 l -0.0392,-0.003 c -0.01633,-0.0821 -0.03637,-0.16494 -0.05934,-0.24931 -0.0394,-0.13598 -0.07056,-0.27472 -0.09362,-0.41535 -0.09523,-0.6446 -0.160881,-0.99962 -0.197055,-1.06528 -0.02633,-0.0422 -0.07259,-0.0704 -0.138264,-0.0844 -0.12487,-0.0281 -0.244809,-0.0649 -0.359818,-0.10943 -0.114997,-0.0469 -0.188686,-0.0702 -0.221551,-0.0702 -0.05909,0 -0.09997,0.032 -0.123024,0.0952 -0.02307,0.0633 -0.03484,0.12618 -0.03484,0.18944 v 0.0424 l 0.04464,0.33752 c 0.07563,0.63289 0.174,1.13569 0.295584,1.5084 0.0887,0.30708 0.256531,0.58581 0.502979,0.83666 0.09196,0.0937 0.211955,0.15142 0.359817,0.17257 0.207022,0.0234 0.410315,0.0596 0.610765,0.10886 0.03287,0.0117 0.0625,0.0174 0.08873,0.0174 h 0.0011 c 0.05593,0 0.08383,-0.0315 0.08383,-0.0947 v -0.007 c 0.02623,-0.24147 0.08871,-0.47447 0.187259,-0.6995 l 0.06423,-0.16876 c -0.02623,-0.0234 -0.03974,-0.0426 -0.03974,-0.0566 0,-0.0211 0.03116,-0.0349 0.09363,-0.0419 0.04266,-0.0773 0.07393,-0.14167 0.09363,-0.19325 0.0063,-0.021 0.0184,-0.042 0.03484,-0.0631 0.03287,-0.0398 0.04899,-0.0718 0.04899,-0.0952 l -0.0093,-0.0316 c -0.0095,-0.0304 -0.01469,-0.0595 -0.01469,-0.0876 0,-0.0681 0.03929,-0.14573 0.118124,-0.23244 l 0.02449,-0.0245 c -0.0032,0 -0.0055,10e-4 -0.0055,0.003 0.0063,-0.0797 0.03943,-0.15121 0.09852,-0.21447 0.0063,-0.007 0.0098,-0.0147 0.0098,-0.0218 0.06573,-0.0821 0.1152,-0.17352 0.148064,-0.27433 0.02296,-0.11488 0.08859,-0.21447 0.197056,-0.29886 h -0.01524 c -0.01949,2e-5 -0.03125,-0.009 -0.03484,-0.0278 0,-0.009 0.0035,-0.0141 0.0098,-0.0141 0.01053,-0.002 0.01872,-0.003 0.02504,-0.003 0.01296,0 0.02091,0.008 0.02449,0.0245 0.102073,-0.13361 0.156441,-0.27511 0.162763,-0.42514 0.01317,-0.10313 0.03898,-0.20273 0.07838,-0.29883 l 0.0055,-0.0283 c 0,-0.0375 -0.01939,-0.061 -0.05879,-0.0703 -0.08543,-0.0236 -0.166102,-0.0564 -0.241693,-0.0986 -0.131472,-0.0727 -0.236888,-0.10887 -0.315724,-0.10887 z m 5.111465,0.0811 c 0.124881,0 0.202326,0.0129 0.231894,0.0387 0.03287,0.0258 0.04899,0.0691 0.04899,0.1301 -0.0063,0.15237 -0.05604,0.29535 -0.148063,0.42896 -0.20044,0.31408 -0.469903,0.5929 -0.808363,0.83666 -0.0032,0.005 -0.0095,0.008 -0.0196,0.0109 -0.0063,0.002 -0.01785,0.007 -0.03429,0.0141 -0.01317,0.004 -0.03834,0.0127 -0.07458,0.0245 0.0296,-0.0985 0.04463,-0.19183 0.04463,-0.28091 v -0.0251 c 0,-0.10081 0.02321,-0.19802 0.06913,-0.29179 0.02602,-0.0422 0.04106,-0.0841 0.04464,-0.12628 0.01317,-0.15704 0.05404,-0.30864 0.123023,-0.45398 l 0.06423,-0.16494 c 0.02296,-0.0818 0.08859,-0.12517 0.197055,-0.13011 l 0.103432,-0.007 z m -2.050573,0.10888 5.44e-4,10e-4 c -0.01633,0 -0.02971,0.001 -0.0392,0.003 -0.01053,0.002 -0.01872,0.003 -0.02504,0.003 h -0.0098 l -0.0055,0.003 -0.0093,0.003 -0.03973,0.003 c -0.118295,0.005 -0.235,0.0152 -0.350017,0.0316 -0.706496,0.0961 -1.287893,0.23667 -1.74465,0.42188 -0.118368,0.0493 -0.17746,0.0973 -0.17746,0.14426 0,0.0469 0.09196,0.11023 0.275988,0.18997 l 0.0098,0.003 c 0.05593,0.0235 0.08383,0.0477 0.08383,0.0735 0,0.0258 -0.01177,0.0545 -0.03484,0.0849 -0.06247,0.12656 -0.118362,0.25521 -0.16766,0.38649 -0.01633,0.0633 -0.05235,0.11859 -0.108326,0.16546 -0.01622,0.014 -0.02449,0.0293 -0.02449,0.0457 0,0.0117 0.0054,0.0247 0.01469,0.0387 0.0095,0.014 0.01416,0.0293 0.01416,0.0457 0,0.0188 -0.0095,0.0597 -0.0294,0.12302 -0.0394,0.11723 -0.05934,0.2354 -0.05934,0.35494 0,0.0492 0.0035,0.0983 0.0098,0.14751 0.01317,0.13593 0.0987,0.24277 0.25639,0.32007 0.138015,0.0656 0.272467,0.13236 0.403909,0.20034 0.111735,0.0633 0.23004,0.0952 0.354918,0.0952 l 0.0011,0.002 c 0.147862,0 0.325352,-0.04 0.532374,-0.11976 0.289165,-0.11957 0.540334,-0.27205 0.753928,-0.45727 0.02307,-0.0188 0.03484,-0.035 0.03484,-0.049 l -0.0055,-0.003 h -0.01959 l -0.01959,-0.0457 c -0.0197,-0.0212 -0.04134,-0.0314 -0.08601,-0.0507 -0.02159,-0.0309 -0.112915,-0.0543 -0.155683,-0.0942 l -0.0055,-0.007 c -0.0394,-0.0375 -0.08722,-0.0689 -0.143167,-0.0947 -0.03287,-0.0137 -0.0576,-0.0213 -0.07403,-0.0213 -0.02634,0.002 -0.08058,0.0362 -0.16276,0.10186 -0.213596,0.16641 -0.459915,0.30131 -0.739232,0.40446 -0.128102,0.0469 -0.213621,0.0703 -0.256389,0.0703 -0.0394,0 -0.05879,-0.0329 -0.05879,-0.0985 0,-0.16407 0.0329,-0.34234 0.09852,-0.53456 0.03613,-0.10546 0.254514,-0.20742 0.6554,-0.30591 l 0.0343,-0.007 c 0.289163,-0.0773 0.581756,-0.14638 0.877493,-0.20739 0.06573,-0.0117 0.129691,-0.027 0.192159,-0.0457 l 0.02994,-0.0109 c 0.0394,-0.007 0.05879,-0.0208 0.05879,-0.0419 0,-0.0469 -0.03762,-0.076 -0.113226,-0.0876 -0.02307,-0.002 -0.05096,-0.019 -0.08383,-0.0495 -0.11502,-0.11015 -0.203725,-0.16494 -0.266189,-0.16494 -0.01643,0 -0.03474,0.003 -0.05444,0.0105 -0.069,0.0235 -0.224978,0.0579 -0.46814,0.10239 l -0.359817,0.0773 c -0.09533,0.0235 -0.152861,0.0349 -0.172561,0.0349 -0.02307,0 -0.0343,-0.0105 -0.0343,-0.0316 l 0.0055,-0.0141 c 0.0986,-0.2133 0.188922,-0.33484 0.271085,-0.36529 0.02623,-0.009 0.03973,-0.0204 0.03973,-0.0321 0,-0.0235 -0.02963,-0.0477 -0.08873,-0.0735 -0.02623,-0.007 -0.0392,-0.0166 -0.0392,-0.0283 0,-0.0117 0.02908,-0.0255 0.08818,-0.0419 l 0.433848,-0.10229 c 0.124881,-0.0304 0.312581,-0.0637 0.562316,-0.10123 0.105128,-0.0212 0.210043,-0.0321 0.315181,-0.0321 0.06573,-0.004 0.129691,-0.0126 0.192155,-0.0244 0.04298,-0.005 0.06771,-0.0117 0.07403,-0.0213 0.0063,-0.0117 0.0093,-0.021 0.0093,-0.0283 0,-0.0304 -0.01939,-0.0513 -0.05879,-0.0631 -0.07226,-0.0304 -0.12979,-0.0706 -0.172559,-0.11976 0,-0.002 -0.0018,-0.003 -0.005,-0.003 -0.07226,-0.075 -0.144284,-0.11268 -0.216651,-0.11268 z m 12.737834,0.0866 c -0.0493,0 -0.09343,0.0295 -0.132821,0.0882 l -0.0053,0.007 c -0.0063,0.0141 -0.06257,0.0961 -0.167667,0.24604 -0.167583,0.24379 -0.345079,0.48544 -0.532371,0.72453 -0.0887,0.11252 -0.196825,0.2531 -0.32498,0.42188 -0.05594,0.0726 -0.09249,0.11746 -0.108878,0.1339 -0.01317,0.0162 -0.0277,0.0245 -0.04403,0.0245 -0.02634,0 -0.06078,-0.0198 -0.103443,-0.0598 -0.177441,-0.17581 -0.323735,-0.4127 -0.438744,-0.71039 -0.0032,0 -0.0055,-0.001 -0.0055,-0.003 -0.01317,-0.0446 -0.03311,-0.0864 -0.05934,-0.12628 -0.0197,-0.0258 -0.03583,-0.0834 -0.04899,-0.17256 l -0.0048,-0.0316 c -0.0063,-0.075 -0.0329,-0.12798 -0.07893,-0.15842 -0.0063,-0.002 -0.0098,-0.0113 -0.0098,-0.0278 -0.0032,-0.0867 -0.0592,-0.13009 -0.167662,-0.13009 -0.0592,0 -0.129589,-0.0168 -0.211752,-0.0495 l -0.07893,-0.0245 c -0.07237,-0.0304 -0.137961,-0.0457 -0.197058,-0.0457 -0.06247,0 -0.09363,0.0352 -0.09363,0.1056 0,0.0633 0.02789,0.18718 0.08383,0.37235 0.108445,0.37269 0.303664,0.68914 0.586266,0.94934 0.0986,0.0961 0.227134,0.16569 0.384857,0.20794 0.203989,0.0516 0.308862,0.082 0.31518,0.0914 0.0063,0.006 0.0098,0.0121 0.0098,0.0174 0,0.0188 -0.03116,0.0735 -0.09363,0.16494 -0.17087,0.24378 -0.309124,0.51502 -0.414252,0.81271 -0.0296,0.0937 -0.04463,0.18863 -0.04463,0.28469 0.0095,0.10779 0.03943,0.17303 0.08873,0.19652 v 5.6e-4 c 0.0887,0.0352 0.182696,0.0523 0.383768,0.0512 0.109006,0.004 0.217515,0.0125 0.226996,0.0125 h 0.0095 l 0.0021,-0.001 c 0.02012,0 0.02939,-0.009 0.02939,-0.0283 0.0032,-0.0188 0.0053,-0.0363 0.0053,-0.0528 0,-0.0562 0.0063,-0.11729 0.01959,-0.18291 0.0592,-0.23674 0.162411,-0.46264 0.310286,-0.67827 0.0197,-0.0281 0.03855,-0.0562 0.05499,-0.0844 0.01643,-0.0304 0.03476,-0.061 0.05446,-0.0914 0.02296,-0.0328 0.04551,-0.0673 0.06858,-0.10238 0.04603,-0.0844 0.106729,-0.16305 0.182362,-0.23571 l 0.02992,-0.0419 h -0.0053 l 0.06426,-0.0876 c 0.0032,-0.0328 0.02265,-0.0609 0.05878,-0.0844 0.0493,-0.11018 0.120338,-0.21698 0.212299,-0.32011 0.0197,-0.0258 0.0493,-0.0539 0.0887,-0.0844 h -0.0053 c 0.02623,-0.0656 0.06394,-0.12897 0.113228,-0.18997 0.01053,-0.009 0.01875,-0.0199 0.02507,-0.0316 0.177443,-0.24142 0.333428,-0.49117 0.468146,-0.74903 0.03287,-0.0632 0.04898,-0.11151 0.04898,-0.14426 0,-0.035 -0.0296,-0.0546 -0.0887,-0.0598 -0.07563,-0.007 -0.152551,-0.0256 -0.231345,-0.056 l -0.05446,-0.0213 c -0.05593,-0.0305 -0.11346,-0.0457 -0.172555,-0.0457 z m -19.274413,0.7926 c -0.06869,1.4e-4 -0.119752,0.0263 -0.152419,0.0779 -0.06247,0.10546 -0.126426,0.33041 -0.192156,0.67497 -0.04919,0.27896 -0.07403,0.55776 -0.07403,0.83669 0,0.17581 0.01056,0.30677 0.02994,0.39356 0.0095,0.0329 0.02124,0.0647 0.0343,0.0952 0.0493,0.12893 0.165993,0.20993 0.350019,0.24278 l 0.162762,0.0206 c 0.124856,0.0117 0.248012,0.0341 0.369614,0.067 0.0063,0.002 0.01719,0.003 0.02994,0.003 0.03244,-0.004 0.04899,-0.0186 0.04899,-0.0419 0,-0.0117 -0.0063,-0.0236 -0.01959,-0.0354 -0.07553,-0.0679 -0.117247,-0.1452 -0.123568,-0.23188 -0.0053,-0.0891 -0.0098,-0.17818 -0.0098,-0.26729 0.0063,-0.25786 0.03627,-0.54857 0.08873,-0.87205 0.03287,-0.26254 0.07532,-0.48894 0.127925,-0.67882 0.0053,-0.0211 0.0093,-0.042 0.0093,-0.0631 0,-0.0329 -0.01286,-0.0595 -0.0392,-0.0806 -0.02634,-0.0235 -0.06225,-0.0354 -0.108325,-0.0354 -0.06573,-0.002 -0.165753,-0.0223 -0.300481,-0.0599 -0.09833,-0.0303 -0.175555,-0.0456 -0.23135,-0.0457 z m -2.118621,1.70218 -0.0055,0.003 h 0.0055 z"
         style="font-style:normal;font-variant:normal;font-weight:normal;font-stretch:normal;font-size:8.09381px;line-height:1.25;font-family:stronger;-inkscape-font-specification:stronger;font-variant-ligatures:normal;font-variant-caps:normal;font-variant-numeric:normal;font-feature-settings:normal;text-align:center;letter-spacing:0px;word-spacing:0px;writing-mode:lr-tb;text-anchor:middle;fill:#ffcc00;fill-opacity:1;stroke:none;stroke-width:0.532869" /><path
         inkscape:connector-curvature="0"
         id="path5291"
         d="m 32.429834,353.00446 c -1.526413,0 -2.967744,0.38281 -4.323965,1.14827 -1.398768,0.78829 -2.478465,1.86205 -3.239011,3.22158 -0.558418,0.99394 -0.843114,1.9883 -0.853773,2.98224 -0.01596,1.77652 0.760354,3.05896 2.329316,3.84726 0.845235,0.42224 1.880804,0.68765 3.103807,0.79777 l 0.493239,-1.50054 c -1.665675,-0.40716 -2.517157,-1.48433 -2.554657,-3.23144 -7.39e-4,-0.0403 -0.0052,-0.0782 -0.0052,-0.11922 0,-0.16794 0.0087,-0.33436 0.02417,-0.50107 0.0029,-0.0315 0.009,-0.0627 0.0125,-0.0942 0.01552,-0.13947 0.03533,-0.27911 0.06179,-0.41771 0.0037,-0.0186 0.0088,-0.0371 0.01249,-0.0555 0.03149,-0.15618 0.06977,-0.31191 0.115169,-0.46701 0.04901,-0.16747 0.106727,-0.33397 0.171922,-0.50018 5.92e-4,-10e-4 0.0015,-0.003 0.0015,-0.004 0.21592,-0.54909 0.515988,-1.09176 0.908862,-1.62693 0.930739,-1.25669 1.964814,-1.89067 3.102972,-1.90211 -0.04257,0.1428 -0.06341,0.31458 -0.06341,0.51452 0,0.59979 0.220389,1.10539 0.661821,1.51667 0.425482,0.38843 0.923155,0.58264 1.492231,0.58264 0.563761,0 1.055383,-0.19421 1.475543,-0.58264 0.441438,-0.41128 0.661821,-0.91688 0.661821,-1.51667 0,-0.54838 -0.204722,-1.0339 -0.614247,-1.45662 -0.404211,-0.42271 -0.863668,-0.63463 -1.379568,-0.63463 z m -3.984289,4.94352 c -0.263441,0.66997 -0.399762,1.34949 -0.399762,2.04016 0,0.041 0.0044,0.079 0.0052,0.11922 h 6.818528 c 0.946694,0 1.64909,0.1886 2.106484,0.56561 0.510579,0.42843 0.766149,1.13382 0.766149,2.11634 0,0.59981 -0.212978,1.3486 -0.63846,2.24544 -0.473343,1.01679 -1.225752,1.87066 -2.257544,2.56185 -1.02647,0.69119 -2.063568,1.03621 -3.111316,1.03621 l 1.178431,-3.57207 h 0.84126 c 1.127522,0 1.773025,-0.45749 1.937896,-1.37146 h -2.325989 l 0.817054,-2.47669 h -2.879269 l -2.888487,8.79167 h 2.633102 c 1.802973,0 3.488602,-0.38841 5.057563,-1.16528 1.70192,-0.84544 2.999806,-2.03636 3.893325,-3.57298 0.675449,-1.16531 1.013174,-2.27123 1.013174,-3.31658 0,-1.34811 -0.52377,-2.37846 -1.571511,-3.09251 -0.88819,-0.6055 -2.000045,-0.90893 -3.334988,-0.90893 z"
         style="font-style:normal;font-variant:normal;font-weight:normal;font-stretch:normal;font-size:10.1166px;line-height:1.25;font-family:Magneto;-inkscape-font-specification:Magneto;font-variant-ligatures:normal;font-variant-caps:normal;font-variant-numeric:normal;font-feature-settings:normal;text-align:center;letter-spacing:0px;word-spacing:0px;writing-mode:lr-tb;text-anchor:middle;fill:#ffcc00;fill-opacity:1;stroke:none;stroke-width:0.442843" /></g></g></svg>
